<svg xmlns="http://www.w3.org/2000/svg" xmlns:xlink="http://www.w3.org/1999/xlink" width="750" zoomAndPan="magnify" viewBox="0 0 562.5 562.499982" height="750" preserveAspectRatio="xMidYMid meet" version="1.0"><defs><g/></defs><g fill="#ffffff" fill-opacity="1"><g transform="translate(114.005894, 510.234536)"><g><path d="M 341.3125 -6.515625 C 342.039062 -5.066406 341.859375 -3.617188 340.765625 -2.171875 C 339.679688 -0.722656 338.234375 0 336.421875 0 L 261.421875 0 C 258.890625 0 257.257812 -1.085938 256.53125 -3.265625 L 170.65625 -245.65625 L 85.875 -3.265625 C 85.507812 -1.085938 83.695312 0 80.4375 0 L 5.984375 0 C 3.441406 0 1.71875 -0.722656 0.8125 -2.171875 C -0.09375 -3.617188 -0.179688 -5.066406 0.546875 -6.515625 L 165.21875 -431.53125 C 165.945312 -433.707031 167.757812 -434.796875 170.65625 -434.796875 C 173.550781 -434.796875 175.363281 -433.707031 176.09375 -431.53125 Z M 341.3125 -6.515625 "/></g></g></g><g fill="#ffffff" fill-opacity="1"><g transform="translate(269.974534, 34.444135)"><g><path d="M 149.328125 410.671875 L 102.65625 457.34375 C 99.175781 460.820312 96.566406 460.441406 94.828125 456.203125 L -50.78125 54.5 C -51.519531 52.757812 -51.019531 51.019531 -49.28125 49.28125 L -3.734375 3.734375 C -0.253906 0.253906 2.351562 0.625 4.09375 4.84375 L 151.1875 405.0625 C 151.695312 407.050781 151.078125 408.921875 149.328125 410.671875 Z M 149.328125 410.671875 "/></g></g></g></svg>